<?xml version="1.0" standalone="no"?><!DOCTYPE svg PUBLIC "-//W3C//DTD SVG 1.1//EN" "http://www.w3.org/Graphics/SVG/1.1/DTD/svg11.dtd"><svg t="1774174690527" class="icon" viewBox="0 0 1024 1024" version="1.1" xmlns="http://www.w3.org/2000/svg" p-id="6029" width="36" height="36" xmlns:xlink="http://www.w3.org/1999/xlink"><path d="M320 117.333333a32 32 0 0 0-32 32v62.464h-64V149.333333A96 96 0 0 1 320 53.333333h554.666667a96 96 0 0 1 96 96v554.666667a96 96 0 0 1-96 96h-63.616v-64H874.666667a32 32 0 0 0 32-32v-554.666667a32 32 0 0 0-32-32h-554.666667z" fill="#1C1B1F" p-id="6030"></path><path d="M149.333333 245.333333a32 32 0 0 0-32 32v597.333334c0 17.664 14.336 32 32 32h597.333334a32 32 0 0 0 32-32v-597.333334a32 32 0 0 0-32-32h-597.333334z m-96 32A96 96 0 0 1 149.333333 181.333333h597.333334a96 96 0 0 1 96 96v597.333334a96 96 0 0 1-96 96h-597.333334a96 96 0 0 1-96-96v-597.333334z" fill="#1C1B1F" p-id="6031"></path><path d="M529.066667 397.909333l-112.64 117.290667a32 32 0 0 1-46.122667-44.373333l112.896-117.504 0.426667-0.469334c44.074667-44.032 115.2-42.24 158.933333 1.536 43.648 43.605333 45.568 114.517333 1.877333 158.549334l-40.448 42.837333a32 32 0 1 1-46.506666-43.946667l40.746666-43.093333a30.976 30.976 0 0 1 0.597334-0.682667c17.92-17.92 18.389333-48.554667-1.493334-68.437333-19.84-19.797333-50.304-19.413333-68.266666-1.706667zM309.888 590.634667a32 32 0 0 1 0 45.226666 2385.92 2385.92 0 0 1-30.08 29.44l-3.456 3.413334c-18.517333 18.688-18.901333 53.461333 0.170667 72.533333 19.882667 19.882667 50.474667 19.413333 68.394666 1.536a32.981333 32.981333 0 0 1 1.109334-1.066667l110.165333-100.053333a32 32 0 1 1 43.050667 47.402667l-109.653334 99.541333c-44.074667 43.434667-114.773333 41.386667-158.336-2.133333-44.501333-44.501333-43.264-119.936 0-163.2l0.426667-0.426667 3.626667-3.498667a5876.778667 5876.778667 0 0 0 29.354666-28.714666 32 32 0 0 1 45.226667 0z" fill="#1C1B1F" p-id="6032"></path><path d="M419.242667 468.053333a32 32 0 0 1 0 45.226667 46.208 46.208 0 0 0-13.312 36.138667m13.312-81.365334a32 32 0 0 0-45.226667 0h45.226667z m-45.226667 0c-23.509333 23.466667-34.005333 54.997333-31.914667 85.674667l31.872-85.674667z m31.914667 81.365334c0.810667 11.562667 5.674667 23.125333 14.848 32.298666a32 32 0 0 1-45.226667 45.226667 114.432 114.432 0 0 1-33.450667-73.216M453.546667 529.066667a32 32 0 0 1 45.269333 0c43.733333 43.733333 45.568 114.901333 1.536 158.933333a32 32 0 0 1-45.269333-45.226667c17.92-17.92 18.346667-48.554667-1.536-68.437333a32 32 0 0 1 0-45.226667z" fill="#1C1B1F" p-id="6033"></path></svg>